<svg width="36" height="36" viewBox="0 0 36 36" fill="none" xmlns="http://www.w3.org/2000/svg">
<rect width="36" height="36" rx="4" fill="#323438"/>
<mask id="mask0_216_1116" style="mask-type:alpha" maskUnits="userSpaceOnUse" x="0" y="0" width="36" height="36">
<rect width="36" height="36" rx="4" fill="#D9D9D9"/>
</mask>
<g mask="url(#mask0_216_1116)">
</g>
<path fill-rule="evenodd" clip-rule="evenodd" d="M27.1402 17.763V25.9661C27.1402 26.0208 27.1311 26.0664 27.1128 26.1028C27.0946 26.1393 27.0673 26.1758 27.0308 26.2122L23.7222 29.3567C23.6311 29.4479 23.5171 29.5208 23.3804 29.5755C23.2437 29.6302 23.1115 29.6575 22.9839 29.6575H14.8902C14.7079 29.6575 14.5848 29.5755 14.521 29.4114C14.4572 29.2474 14.48 29.1015 14.5894 28.9739L21.7808 21.6458L8.76519 6.98956C8.65581 6.86196 8.63758 6.72068 8.7105 6.56573C8.78342 6.41079 8.9019 6.33331 9.06597 6.33331H16.8316C16.9592 6.33331 17.0959 6.36066 17.2417 6.41534C17.3876 6.47003 17.5061 6.55206 17.5972 6.66144L27.0582 17.5443C27.0946 17.5625 27.1174 17.5944 27.1265 17.64C27.1356 17.6855 27.1402 17.7265 27.1402 17.763Z" fill="white"/>
</svg>
