<svg width="224" height="22" viewBox="0 0 224 22" fill="none" xmlns="http://www.w3.org/2000/svg">
<path fill-rule="evenodd" clip-rule="evenodd" d="M37.6448 5.37521V6.59142C38.765 5.79854 39.9622 5.40313 41.2367 5.40313C42.9283 5.40313 44.3732 6.00521 45.5701 7.20912C46.7677 8.4138 47.3666 9.8628 47.3666 11.5559C47.3666 13.251 46.7677 14.6994 45.5701 15.9039C44.3732 17.108 42.9321 17.7106 41.2484 17.7106C39.9889 17.7106 38.8195 17.3224 37.7374 16.5449V22H35.1079V5.37521H37.6448ZM90.8441 3.31809L93.468 3.83054V5.75587H94.7774V8.38855H93.4639V14.1295C93.468 14.4199 93.5928 14.6803 93.7547 14.8079C93.925 14.9408 94.3222 15.0617 94.7736 15.1085V17.7546C91.9157 17.7617 90.8441 16.8797 90.8441 15.1085V3.31809ZM69.0835 5.43588V6.39778C69.8944 5.84615 70.8176 5.57059 71.8539 5.57059C73.4131 5.57059 74.6884 6.06409 75.6768 7.05032C76.6112 7.99019 77.0786 9.19077 77.0786 10.6518V17.6919H74.4483V10.8157C74.4483 10.1004 74.1853 9.48247 73.6611 8.96208C73.1427 8.44937 72.5174 8.19225 71.7834 8.19225C70.9724 8.19225 70.3275 8.44937 69.8484 8.96208C69.4311 9.41281 69.2228 9.99185 69.2228 10.6989V17.6919H66.6162V5.43588H69.0835ZM58.745 5.35647C60.0356 5.35647 61.2516 5.76827 62.3955 6.59136V5.43586H64.8634V17.6919H62.3955V16.4519C61.2748 17.2604 60.0623 17.6642 58.7572 17.6642C57.0649 17.6642 55.6205 17.0621 54.4239 15.858C53.2262 14.6533 52.6266 13.2038 52.6266 11.51C52.6266 9.81639 53.2262 8.36689 54.4239 7.16272C55.6205 5.95881 57.0611 5.35647 58.745 5.35647ZM48.6816 1.00146L51.3117 1.51365V17.6918H48.6816V1.00146ZM21.5323 1L24.1626 1.51219V6.52145C25.2439 5.74496 26.4141 5.35647 27.6733 5.35647C29.3573 5.35647 30.7981 5.95881 31.9955 7.16272C33.1924 8.36689 33.7912 9.81639 33.7912 11.51C33.7912 13.2038 33.1924 14.6533 31.9955 15.858C30.7981 17.0621 29.3573 17.6642 27.6733 17.6642C26.3985 17.6642 25.1973 17.2755 24.0694 16.4987V17.6919H21.5323V1ZM3.9899 1.51225L6.62939 2.02444V12.5001C6.62939 13.2266 6.48808 13.9017 6.20649 14.5256C5.92413 15.1499 5.5575 15.6887 5.1066 16.1423C4.65493 16.6189 4.1195 16.9933 3.49903 17.2655C2.87856 17.538 2.20742 17.674 1.48536 17.674H0V15.0191H1.48536C2.13027 15.0183 2.79377 14.7696 3.24544 14.2702C3.74116 13.8164 3.9899 13.2266 3.9899 12.5001V1.51225ZM84.1991 5.37995C85.7364 5.37995 86.9952 5.8737 87.9767 6.85968C89.0659 7.94783 89.6104 9.39632 89.6104 11.2069C89.6104 11.4092 89.5944 11.8292 89.5639 12.4656H81.1171C81.0629 12.4656 81.0394 12.4895 81.0479 12.5361C81.5263 14.2842 82.7005 15.1577 84.5703 15.1577C85.674 15.1577 86.8027 14.8322 87.9532 14.1794L89.0198 16.1604C87.5746 17.1632 86.0534 17.6644 84.4534 17.6644C82.6694 17.6644 81.1866 17.0731 80.0047 15.8922C78.8305 14.7037 78.2434 13.2347 78.2434 11.4868C78.2434 9.74615 78.8305 8.28563 80.0047 7.10425C81.1319 5.95463 82.5312 5.37995 84.1991 5.37995ZM14.168 5.35641C15.8214 5.35641 17.2431 5.95466 18.4323 7.15114C19.6216 8.34814 20.2166 9.79304 20.2166 11.4866C20.2166 13.2122 19.6178 14.6763 18.4209 15.8805C17.2311 17.0698 15.7939 17.6642 14.1104 17.6642C12.4036 17.6642 10.9546 17.0621 9.76509 15.8579C8.56769 14.6612 7.96911 13.2078 7.96911 11.4986C7.96911 9.8125 8.56005 8.36683 9.74192 7.16267C10.9314 5.95875 12.4069 5.35641 14.168 5.35641ZM41.2138 8.02453C40.2562 8.02453 39.4369 8.36668 38.7574 9.0502C38.0776 9.72656 37.7374 10.5619 37.7374 11.5559C37.7374 12.5505 38.0776 13.3864 38.7574 14.0618C39.4369 14.7461 40.2674 15.0885 41.2484 15.0885C42.2297 15.0885 43.0599 14.7461 43.7395 14.0618C44.4198 13.3864 44.7594 12.5505 44.7594 11.5559C44.7594 10.5696 44.4198 9.73424 43.7395 9.0502C43.0676 8.36668 42.2259 8.02453 41.2138 8.02453ZM58.7107 7.9789C57.7526 7.9789 56.934 8.32028 56.2542 9.00405C55.5744 9.68835 55.2345 10.524 55.2345 11.51C55.2345 12.5046 55.5744 13.34 56.2542 14.0161C56.934 14.7002 57.764 15.0415 58.745 15.0415C59.7263 15.0415 60.5565 14.7002 61.2366 14.0161C61.9161 13.34 62.2565 12.5046 62.2565 11.51C62.2565 10.524 61.9161 9.68835 61.2366 9.00405C60.5642 8.32028 59.7219 7.9789 58.7107 7.9789ZM27.639 7.9789C26.6801 7.9789 25.8618 8.32028 25.1826 9.00405C24.502 9.68015 24.1626 10.5155 24.1626 11.51C24.1626 12.5046 24.502 13.34 25.1826 14.0161C25.8618 14.7002 26.6924 15.0415 27.6733 15.0415C28.6538 15.0415 29.4846 14.7002 30.1649 14.0161C30.8447 13.34 31.1843 12.5046 31.1843 11.51C31.1843 10.524 30.8447 9.68835 30.1649 9.00405C29.4925 8.32028 28.6505 7.9789 27.639 7.9789ZM14.0873 8.0019C13.1289 8.0019 12.3109 8.3443 11.6306 9.02731C10.9587 9.70366 10.6231 10.5239 10.6231 11.4866C10.6231 12.4815 10.9666 13.3208 11.6537 14.004C12.3259 14.6804 13.1447 15.0182 14.1104 15.0182C15.0833 15.0182 15.9067 14.6804 16.5783 14.004C17.2655 13.3208 17.6095 12.4851 17.6095 11.4986C17.6095 10.5347 17.2739 9.71211 16.6015 9.02731C15.9291 8.3443 15.0912 8.0019 14.0873 8.0019ZM84.1067 7.81518C83.0404 7.81518 82.1712 8.26616 81.4993 9.16686C81.1904 9.57943 81.0354 9.96485 81.0354 10.3211C81.0354 10.3836 81.055 10.4146 81.0937 10.4146H86.8411C86.8714 10.4146 86.8875 10.3608 86.8875 10.2512C86.8875 9.7779 86.7021 9.31181 86.3314 8.85288C85.7753 8.16091 85.0339 7.81518 84.1067 7.81518Z" fill="#323438"/>
<rect x="119" width="105" height="21" rx="2" fill="#C5C7CC"/>
<path d="M111 2C111 0.89543 111.895 0 113 0H216V21H113C111.895 21 111 20.1046 111 19V2Z" fill="#85878C"/>
<path d="M111 2C111 0.89543 111.895 0 113 0H208V21H113C111.895 21 111 20.1046 111 19V2Z" fill="#57595B"/>
<path d="M107 2C107 0.89543 107.895 0 109 0H200V21H109C107.895 21 107 20.1046 107 19V2Z" fill="#323438"/>
<path d="M117.632 14.698H122.672V16.154H115.952V5.738H117.632V14.698ZM126.761 14.81C127.144 14.81 127.48 14.7167 127.769 14.53C128.059 14.334 128.283 14.0587 128.441 13.704C128.6 13.34 128.679 12.9247 128.679 12.458C128.679 11.9913 128.6 11.5807 128.441 11.226C128.283 10.862 128.059 10.582 127.769 10.386C127.48 10.19 127.144 10.092 126.761 10.092C126.379 10.092 126.043 10.19 125.753 10.386C125.464 10.582 125.24 10.862 125.081 11.226C124.923 11.5807 124.843 11.9913 124.843 12.458C124.843 12.9247 124.923 13.3353 125.081 13.69C125.24 14.0447 125.464 14.32 125.753 14.516C126.043 14.712 126.379 14.81 126.761 14.81ZM126.761 8.72C127.461 8.72 128.082 8.87867 128.623 9.196C129.174 9.51333 129.599 9.95667 129.897 10.526C130.205 11.086 130.359 11.73 130.359 12.458C130.359 13.1767 130.205 13.8207 129.897 14.39C129.599 14.9593 129.174 15.4027 128.623 15.72C128.082 16.0373 127.461 16.196 126.761 16.196C126.061 16.196 125.441 16.0373 124.899 15.72C124.358 15.4027 123.933 14.964 123.625 14.404C123.317 13.8347 123.163 13.186 123.163 12.458C123.163 11.73 123.317 11.086 123.625 10.526C123.933 9.95667 124.358 9.51333 124.899 9.196C125.441 8.87867 126.061 8.72 126.761 8.72ZM134.482 16.182C134.034 16.182 133.632 16.084 133.278 15.888C132.923 15.6827 132.643 15.398 132.438 15.034C132.242 14.67 132.144 14.2593 132.144 13.802V6.732H133.824V13.732C133.824 13.9653 133.884 14.166 134.006 14.334C134.136 14.502 134.295 14.586 134.482 14.586C134.64 14.5953 134.841 14.572 135.084 14.516C135.14 14.4973 135.196 14.4787 135.252 14.46L135.63 16.042C135.2 16.1353 134.818 16.182 134.482 16.182ZM130.842 8.818H135.686V10.26H130.842V8.818ZM139.54 16.182C139.092 16.182 138.691 16.084 138.336 15.888C137.981 15.6827 137.701 15.398 137.496 15.034C137.3 14.67 137.202 14.2593 137.202 13.802V6.732H138.882V13.732C138.882 13.9653 138.943 14.166 139.064 14.334C139.195 14.502 139.353 14.586 139.54 14.586C139.699 14.5953 139.899 14.572 140.142 14.516C140.198 14.4973 140.254 14.4787 140.31 14.46L140.688 16.042C140.259 16.1353 139.876 16.182 139.54 16.182ZM135.9 8.818H140.744V10.26H135.9V8.818ZM143.815 8.79V16.154H142.135V8.79H143.815ZM142.975 5.528C143.246 5.528 143.465 5.612 143.633 5.78C143.811 5.948 143.899 6.16733 143.899 6.438C143.899 6.70867 143.811 6.93267 143.633 7.11C143.465 7.278 143.246 7.362 142.975 7.362C142.714 7.362 142.495 7.278 142.317 7.11C142.149 6.93267 142.065 6.70867 142.065 6.438C142.065 6.16733 142.149 5.948 142.317 5.78C142.495 5.612 142.714 5.528 142.975 5.528ZM150.84 11.828C150.793 11.5293 150.695 11.2493 150.546 10.988C150.396 10.7267 150.191 10.512 149.93 10.344C149.668 10.176 149.351 10.092 148.978 10.092C148.642 10.092 148.329 10.1713 148.04 10.33C147.75 10.4793 147.512 10.6893 147.326 10.96C147.139 11.2213 147.018 11.5107 146.962 11.828H150.84ZM152.058 10.722C152.235 11.114 152.333 11.506 152.352 11.898C152.38 12.29 152.384 12.64 152.366 12.948V13.06H146.962C147.018 13.396 147.144 13.6993 147.34 13.97C147.545 14.2313 147.788 14.4367 148.068 14.586C148.357 14.726 148.66 14.796 148.978 14.796C149.491 14.796 149.878 14.7073 150.14 14.53C150.41 14.3527 150.606 14.1753 150.728 13.998L150.742 13.97L152.1 14.544C151.876 15.0013 151.498 15.3887 150.966 15.706C150.434 16.0233 149.766 16.182 148.964 16.182C148.273 16.182 147.657 16.028 147.116 15.72C146.574 15.4027 146.15 14.964 145.842 14.404C145.543 13.8347 145.394 13.186 145.394 12.458C145.394 11.73 145.543 11.086 145.842 10.526C146.15 9.95667 146.574 9.51333 147.116 9.196C147.657 8.87867 148.273 8.72 148.964 8.72C149.645 8.72 150.21 8.86 150.658 9.14C151.115 9.41067 151.446 9.7 151.652 10.008C151.857 10.3067 151.992 10.5447 152.058 10.722ZM167.614 16.154H165.794L164.66 13.396H160.026L158.878 16.154H157.058L161.398 5.738H163.344L167.614 16.154ZM164.072 11.94L162.364 7.782L160.628 11.94H164.072ZM170.553 10.064C170.758 9.66267 171.066 9.336 171.477 9.084C171.897 8.832 172.335 8.706 172.793 8.706V10.204C172.363 10.204 171.976 10.3207 171.631 10.554C171.285 10.778 171.019 11.072 170.833 11.436C170.646 11.7907 170.553 12.15 170.553 12.514V16.154H168.887V8.72H170.553V10.064ZM176.714 14.628C176.975 14.628 177.251 14.5627 177.54 14.432C177.839 14.3013 178.095 14.124 178.31 13.9L179.43 15.062C179.103 15.398 178.688 15.6733 178.184 15.888C177.689 16.0933 177.218 16.196 176.77 16.196C176.033 16.196 175.379 16.0373 174.81 15.72C174.241 15.4027 173.797 14.9593 173.48 14.39C173.163 13.8207 173.004 13.1767 173.004 12.458C173.004 11.7393 173.163 11.0953 173.48 10.526C173.807 9.95667 174.25 9.51333 174.81 9.196C175.379 8.87867 176.033 8.72 176.77 8.72C177.255 8.72 177.731 8.82267 178.198 9.028C178.674 9.23333 179.085 9.50867 179.43 9.854L178.31 11.002C178.086 10.7873 177.829 10.6147 177.54 10.484C177.251 10.3533 176.975 10.288 176.714 10.288C176.313 10.288 175.958 10.3813 175.65 10.568C175.342 10.7453 175.104 10.9973 174.936 11.324C174.768 11.6507 174.684 12.0287 174.684 12.458C174.684 12.8873 174.768 13.2653 174.936 13.592C175.104 13.9187 175.342 14.1753 175.65 14.362C175.958 14.5393 176.313 14.628 176.714 14.628ZM185.621 12.304C185.621 11.6693 185.481 11.1653 185.201 10.792C184.921 10.4093 184.547 10.218 184.081 10.218C183.735 10.218 183.418 10.316 183.129 10.512C182.849 10.708 182.625 10.974 182.457 11.31C182.298 11.646 182.219 12.0147 182.219 12.416V16.154H180.539V5.738H182.219V9.812C182.443 9.49467 182.727 9.25667 183.073 9.098C183.427 8.93 183.768 8.846 184.095 8.846C184.72 8.846 185.271 8.98133 185.747 9.252C186.232 9.52267 186.61 9.90533 186.881 10.4C187.161 10.8853 187.301 11.4453 187.301 12.08V16.154H185.621V12.304ZM190.71 8.79V16.154H189.03V8.79H190.71ZM189.87 5.528C190.14 5.528 190.36 5.612 190.528 5.78C190.705 5.948 190.794 6.16733 190.794 6.438C190.794 6.70867 190.705 6.93267 190.528 7.11C190.36 7.278 190.14 7.362 189.87 7.362C189.608 7.362 189.389 7.278 189.212 7.11C189.044 6.93267 188.96 6.70867 188.96 6.438C188.96 6.16733 189.044 5.948 189.212 5.78C189.389 5.612 189.608 5.528 189.87 5.528ZM196.603 16.154H195.133L192.011 8.72H193.831L195.861 14.026L197.933 8.72H199.767L196.603 16.154ZM205.5 11.828C205.453 11.5293 205.355 11.2493 205.206 10.988C205.056 10.7267 204.851 10.512 204.59 10.344C204.328 10.176 204.011 10.092 203.638 10.092C203.302 10.092 202.989 10.1713 202.7 10.33C202.41 10.4793 202.172 10.6893 201.986 10.96C201.799 11.2213 201.678 11.5107 201.622 11.828H205.5ZM206.718 10.722C206.895 11.114 206.993 11.506 207.012 11.898C207.04 12.29 207.044 12.64 207.026 12.948V13.06H201.622C201.678 13.396 201.804 13.6993 202 13.97C202.205 14.2313 202.448 14.4367 202.728 14.586C203.017 14.726 203.32 14.796 203.638 14.796C204.151 14.796 204.538 14.7073 204.8 14.53C205.07 14.3527 205.266 14.1753 205.388 13.998L205.402 13.97L206.76 14.544C206.536 15.0013 206.158 15.3887 205.626 15.706C205.094 16.0233 204.426 16.182 203.624 16.182C202.933 16.182 202.317 16.028 201.776 15.72C201.234 15.4027 200.81 14.964 200.502 14.404C200.203 13.8347 200.054 13.186 200.054 12.458C200.054 11.73 200.203 11.086 200.502 10.526C200.81 9.95667 201.234 9.51333 201.776 9.196C202.317 8.87867 202.933 8.72 203.624 8.72C204.305 8.72 204.87 8.86 205.318 9.14C205.775 9.41067 206.106 9.7 206.312 10.008C206.517 10.3067 206.652 10.5447 206.718 10.722Z" fill="white"/>
</svg>
